<svg data-v-fde0c5aa="" xmlns="http://www.w3.org/2000/svg" viewBox="0 0 300 300" class="iconAbove"><!----><defs data-v-fde0c5aa=""><!----></defs><rect data-v-fde0c5aa="" fill="#000000" x="0" y="0" width="300px" height="300px" class="logo-background-square"></rect><defs data-v-fde0c5aa=""><!----></defs><g data-v-fde0c5aa="" id="eb1b23ce-b4a1-4c12-ae59-ba8547733bcd" fill="#EBB300"><path d=""></path></g><defs data-v-fde0c5aa=""><!----></defs><g data-v-fde0c5aa="" id="2dc28e13-0588-4f2f-83b2-dc07087968c2" stroke="none" fill="#DAA90A"><path d="M95 74h-3V37.02c.27-.148.5-.36.68-.621.289-.442.398-.98.289-1.5l-6.25-31.301c-.11-.52-.41-.98-.852-1.27a2.077 2.077 0 00-1.512-.3L73.578 4.192c-.519.101-.98.41-1.269.851A1.939 1.939 0 0072 6.423L55.41 9.75a7.992 7.992 0 00-5.129-1.87 8.002 8.002 0 00-7.101 4.32v.011l-30.16 6.051a1.996 1.996 0 00-1.559 2.36l1.172 5.87c.059.297.188.567.367.797V84H9.99C6.14 84 3 87.141 3 90.99v4.851C3 97.032 3.98 98 5.18 98h19.641c1.2 0 2.18-.968 2.18-2.16V90.99C27 87.14 23.86 84 20.012 84h-3.011V27.66l27-5.422V26h-.988a2 2 0 00-1.989 1.762l-3.07 25.57v.02L35.23 75.998h-1.23c-1.102 0-2 .899-2 2v18c0 1.102.898 2 2 2h32c1.101 0 2-.898 2-2V78c0-1.101-.899-2-2-2h-1.23l-2.72-22.648v-.02l-3.07-25.57a2.003 2.003 0 00-1.992-1.76H56v-4.54a7.603 7.603 0 001.37-1.91l16.579-3.32 2.199 11.05c.09.43.32.829.66 1.122l10.34 8.922c.242.207.543.347.852.414V74h-3c-1.102 0-2 .898-2 2v20c0 1.101.898 2 2 2h10c1.101 0 2-.899 2-2V76c0-1.102-.899-2-2-2zM20.012 88A2.99 2.99 0 0123 90.988V94H7v-3.012A2.99 2.99 0 019.99 88zM16.16 23.738l-.39-1.95 26.53-5.32c.052.68.192 1.329.4 1.95zm30.301-9.047c.012-.02.012-.039.02-.05a3.992 3.992 0 016.8-1.402 3.994 3.994 0 01.81 3.87 4.013 4.013 0 01-3.81 2.77 3.973 3.973 0 01-2.988-1.36 3.847 3.847 0 01-.851-1.52c-.102-.359-.16-.73-.16-1.12 0-.41.058-.809.18-1.188zm5.54 9V26h-4v-2.45c.718.211 1.488.329 2.28.329.59 0 1.169-.059 1.72-.188zm-8.66 18.29l3.558 3.01-4.371 3.7zm-2.09 17.417l5.718 5.031-7.07 6.211zM39.86 76L50 67.09 60.143 76zm18.89-16.602l1.353 11.238-7.07-6.21zm-.577-4.82L50 61.76l-8.172-7.18v-.05l8.172-6.922 8.172 6.922zm-.703-5.887l-4.371-3.7 3.558-3.01zm-1.38-11.473l-6.089 5.152-6.09-5.148.871-7.223h10.441zm2.173-21.93a8.035 8.035 0 00-.399-1.95l14.91-2.987.39 1.96zM93 94h-6V78h6z"></path></g><!----></svg>